<svg width="96" height="32" viewBox="0 0 96 32" fill="none" xmlns="http://www.w3.org/2000/svg">
<path fill-rule="evenodd" clip-rule="evenodd" d="M88.1078 0.000104H7.62774C7.33438 0.000104 7.04454 0.000104 6.75196 0.001704C6.50704 0.003304 6.26407 0.007952 6.0168 0.011864C5.47961 0.0181854 4.94369 0.065445 4.41368 0.153232C3.88442 0.24293 3.37174 0.412037 2.89298 0.654832C2.4148 0.899681 1.97788 1.21784 1.59806 1.59776C1.21624 1.97661 0.897971 2.41452 0.65548 2.89463C0.41232 3.37379 0.243712 3.88725 0.15548 4.41729C0.0664088 4.94665 0.0184787 5.48212 0.01212 6.01889C0.004696 6.26417 0.003912 6.51026 0 6.75558V25.247C0.003912 25.4954 0.004696 25.736 0.01212 25.9845C0.0184807 26.5212 0.0664107 27.0567 0.15548 27.586C0.243469 28.1164 0.412087 28.6301 0.65548 29.1095C0.89786 29.588 1.21618 30.0242 1.59806 30.4009C1.97644 30.7825 2.41364 31.1009 2.89298 31.3439C3.37173 31.5873 3.88436 31.7574 4.41368 31.8485C4.94378 31.9356 5.47965 31.9829 6.0168 31.9899C6.26407 31.9954 6.50704 31.9985 6.75196 31.9985C7.04454 32.0001 7.3344 32.0001 7.62774 32.0001H88.1078C88.3953 32.0001 88.6875 32.0001 88.975 31.9985C89.2188 31.9985 89.4688 31.9954 89.7125 31.9899C90.2487 31.9832 90.7835 31.936 91.3125 31.8485C91.8436 31.7568 92.358 31.5867 92.8391 31.3439C93.318 31.1007 93.7548 30.7824 94.1329 30.4009C94.5138 30.0227 94.8327 29.5869 95.0781 29.1095C95.3197 28.6298 95.4867 28.1161 95.5734 27.586C95.6626 27.0566 95.7123 26.5213 95.7219 25.9845C95.725 25.736 95.725 25.4954 95.725 25.247C95.7313 24.9563 95.7313 24.6673 95.7313 24.3719V7.62901C95.7313 7.33604 95.7313 7.04542 95.725 6.75558C95.725 6.51026 95.725 6.26417 95.7219 6.01886C95.7123 5.48204 95.6626 4.94669 95.5734 4.41726C95.4865 3.88753 95.3195 3.37411 95.0781 2.8946C94.5843 1.93226 93.8013 1.14892 92.8391 0.65476C92.358 0.412558 91.8435 0.243496 91.3125 0.15316C90.7836 0.0649862 90.2487 0.0177102 89.7125 0.011752C89.4688 0.007848 89.2188 0.00316 88.975 0.0016C88.6875 0 88.3953 0 88.1078 0V0.000104Z" fill="#A6A6A6"/>
<path fill-rule="evenodd" clip-rule="evenodd" d="M6.75594 31.3002C6.5122 31.3002 6.27434 31.2971 6.03251 31.2916C5.53154 31.2851 5.03173 31.2415 4.5372 31.1612C4.07607 31.0817 3.62936 30.934 3.21181 30.7228C2.79808 30.5134 2.42073 30.2388 2.09421 29.9096C1.76296 29.5842 1.48718 29.2068 1.2778 28.7924C1.06611 28.3752 0.919609 27.9281 0.843398 27.4666C0.761098 26.9707 0.71657 26.4692 0.710198 25.9666C0.705126 25.7979 0.698486 25.2361 0.698486 25.2361V6.75567C0.698486 6.75567 0.705558 6.20254 0.710238 6.04004C0.716339 5.53818 0.760608 5.03752 0.842662 4.54238C0.919013 4.0796 1.06563 3.63119 1.27743 3.2127C1.48604 2.79855 1.76029 2.42088 2.08954 2.09434C2.41842 1.76469 2.79698 1.48868 3.21141 1.27636C3.62801 1.06587 4.07387 0.919181 4.53407 0.841211C5.03023 0.760064 5.53177 0.716192 6.03448 0.709963L6.75633 0.700195H88.9712L89.7017 0.710355C90.1998 0.716275 90.6968 0.759755 91.1884 0.840427C91.6532 0.919375 92.1037 1.06709 92.5251 1.27871C93.3553 1.70658 94.0309 2.38353 94.4571 3.21465C94.6655 3.63026 94.8099 4.075 94.8853 4.53379C94.9683 5.03299 95.0148 5.53759 95.0243 6.04356C95.0266 6.27012 95.0266 6.51348 95.0266 6.75567C95.0329 7.05567 95.0329 7.34121 95.0329 7.6291V24.372C95.0329 24.6627 95.0329 24.9463 95.0266 25.2322C95.0266 25.4924 95.0266 25.7307 95.0235 25.976C95.0142 26.4729 94.9685 26.9685 94.8868 27.4588C94.8121 27.9236 94.6664 28.3742 94.4548 28.7948C94.2439 29.2047 93.9697 29.5788 93.6423 29.9033C93.3155 30.2343 92.9375 30.5105 92.5228 30.7213C92.1026 30.9341 91.6527 31.0824 91.1884 31.1612C90.6939 31.2419 90.194 31.2855 89.693 31.2916C89.4587 31.2971 89.2133 31.3002 88.9751 31.3002L88.1079 31.3018L6.75594 31.3002Z" fill="#282828"/>
<path fill-rule="evenodd" clip-rule="evenodd" d="M19.8151 16.2406C19.8326 14.8834 20.5441 13.6298 21.7004 12.919C20.9677 11.8725 19.7844 11.2328 18.5075 11.1928C17.1641 11.0518 15.8617 11.9967 15.1771 11.9967C14.4793 11.9967 13.4253 11.2068 12.2903 11.2302C10.797 11.2784 9.43855 12.1069 8.71201 13.4125C7.16481 16.0912 8.31888 20.028 9.80097 22.1933C10.5425 23.2536 11.4091 24.438 12.5431 24.396C13.6527 24.3499 14.0672 23.6884 15.4066 23.6884C16.7336 23.6884 17.1224 24.396 18.2794 24.3693C19.4701 24.3499 20.2203 23.3043 20.9358 22.2339C21.4686 21.4785 21.8786 20.6435 22.1505 19.7599C20.7363 19.1618 19.8168 17.7761 19.8151 16.2406V16.2406Z" fill="white"/>
<path fill-rule="evenodd" clip-rule="evenodd" d="M17.6297 9.76881C18.2789 8.98945 18.5988 7.9877 18.5213 6.97632C17.5295 7.08049 16.6133 7.55454 15.9553 8.30401C15.3055 9.04345 14.9764 10.0108 15.0403 10.9931C16.0455 11.0035 16.9999 10.5522 17.6297 9.76881V9.76881Z" fill="white"/>
<path fill-rule="evenodd" clip-rule="evenodd" d="M30.055 21.7116H33.8417L34.7503 24.3968H36.3816L32.7949 14.4624H31.1285L27.5417 24.3968H29.1457L30.055 21.7116ZM33.4488 20.4726H30.4472L31.9277 16.1148H31.9691L33.4488 20.4726Z" fill="white"/>
<path fill-rule="evenodd" clip-rule="evenodd" d="M41.105 24.4728C42.9229 24.4728 44.1276 23.0267 44.1276 20.7759C44.1276 18.5314 42.9159 17.0783 41.0776 17.0782C40.1317 17.0477 39.2456 17.5397 38.7714 18.3587H38.744V17.154H37.3049V26.7931H38.7917V23.2056H38.8261C39.2801 24.0297 40.1653 24.5219 41.105 24.4728ZM40.6854 18.3454C41.8417 18.3454 42.5995 19.3095 42.5995 20.7759C42.5995 22.2556 41.8417 23.2126 40.6854 23.2126C39.5495 23.2126 38.7854 22.2353 38.7854 20.7759C38.7854 19.3298 39.5495 18.3454 40.6854 18.3454Z" fill="white"/>
<path fill-rule="evenodd" clip-rule="evenodd" d="M49.0769 24.4728C50.8948 24.4728 52.0995 23.0267 52.0995 20.7759C52.0995 18.5314 50.8878 17.0782 49.0495 17.0782C48.1036 17.0477 47.2175 17.5397 46.7433 18.3587H46.7159V17.154H45.2769V26.7931H46.7636V23.2056H46.798C47.252 24.0297 48.1372 24.5219 49.0769 24.4728ZM48.6573 18.3454C49.8136 18.3454 50.5714 19.3095 50.5714 20.7759H50.5714C50.5714 22.2556 49.8136 23.2126 48.6573 23.2126C47.5214 23.2126 46.7573 22.2353 46.7573 20.7759C46.7573 19.3298 47.5214 18.3454 48.6573 18.3454Z" fill="white"/>
<path fill-rule="evenodd" clip-rule="evenodd" d="M57.3683 21.6289C57.4785 22.6141 58.4355 23.2609 59.7433 23.2609C60.9965 23.2609 61.898 22.6141 61.898 21.7258C61.898 20.9547 61.3543 20.493 60.0668 20.1766L58.7793 19.8664C56.9551 19.4258 56.1082 18.5727 56.1082 17.1883C56.1082 15.4742 57.6019 14.2969 59.723 14.2969C61.8222 14.2969 63.2613 15.4742 63.3097 17.1883H61.8089C61.7191 16.1969 60.8996 15.5984 59.7019 15.5984C58.5043 15.5984 57.6847 16.2039 57.6847 17.0852C57.6847 17.7875 58.2082 18.2008 59.4886 18.5172L60.5832 18.7859C62.6214 19.2679 63.4683 20.0867 63.4683 21.5398C63.4683 23.3984 61.9878 24.5625 59.6332 24.5625C57.43 24.5625 55.9425 23.4258 55.8464 21.6289L57.3683 21.6289Z" fill="white"/>
<path fill-rule="evenodd" clip-rule="evenodd" d="M66.677 15.4399V17.154H68.0543V18.3313H66.677V22.3243C66.677 22.9446 66.9528 23.2337 67.5582 23.2337C67.7218 23.2308 67.885 23.2194 68.0473 23.1993V24.3696C67.7751 24.4205 67.4984 24.4435 67.2215 24.4384C65.7551 24.4384 65.1832 23.8876 65.1832 22.4829V18.3313H64.1301V17.154H65.1832V15.4399H66.677Z" fill="white"/>
<path fill-rule="evenodd" clip-rule="evenodd" d="M72.2872 17.0649C70.1942 17.0649 68.8521 18.497 68.8521 20.7759C68.8521 23.061 70.1809 24.4868 72.2872 24.4868C74.3942 24.4868 75.7231 23.061 75.7231 20.7759C75.7231 18.4969 74.3872 17.0649 72.2872 17.0649ZM72.2872 18.2899C73.4919 18.2899 74.2083 19.2126 74.2083 20.7759H74.2083C74.2083 22.3454 73.4919 23.261 72.2872 23.261C71.0825 23.261 70.3669 22.3454 70.3669 20.7759C70.3669 19.2196 71.0825 18.2899 72.2872 18.2899Z" fill="white"/>
<path fill-rule="evenodd" clip-rule="evenodd" d="M76.9487 17.154H78.3667V18.3868H78.4011C78.5988 17.5932 79.326 17.047 80.1433 17.0782C80.3146 17.0776 80.4855 17.0962 80.6527 17.1336V18.5243C80.4364 18.4582 80.2107 18.4278 79.9847 18.4344C79.5476 18.4167 79.1246 18.5909 78.8267 18.9113C78.5289 19.2316 78.386 19.6662 78.4355 20.1008V24.3969H76.9487L76.9487 17.154Z" fill="white"/>
<path fill-rule="evenodd" clip-rule="evenodd" d="M84.3887 24.4868C86.027 24.4868 87.3075 23.5845 87.5075 22.2696L86.0958 22.2696C85.8248 22.9417 85.1446 23.356 84.4231 23.2884C83.8821 23.3083 83.3587 23.0948 82.9859 22.7023C82.6131 22.3098 82.4269 21.776 82.4747 21.2368V21.147H87.5903V20.6376C87.5903 18.4415 86.3301 17.0649 84.3262 17.0649C82.2887 17.0649 80.9739 18.5384 80.9739 20.8103C80.9739 23.0751 82.2817 24.4868 84.3887 24.4868ZM86.1028 20.1079L82.4817 20.1079C82.4804 19.6189 82.6746 19.1496 83.0209 18.8044C83.3673 18.4592 83.8372 18.2667 84.3262 18.2696C84.8114 18.2592 85.2789 18.4517 85.6161 18.8006C85.9534 19.1496 86.1298 19.6234 86.1028 20.1079Z" fill="white"/>
<path fill-rule="evenodd" clip-rule="evenodd" d="M31.9453 7.10637C31.5102 6.69614 30.892 6.48174 30.2608 6.52218H28.5366V10.7842H30.2608C31.6827 10.7842 32.5069 10.0015 32.5069 8.63992C32.5865 8.07942 32.3804 7.5166 31.9453 7.10637ZM30.178 10.1815H29.278V7.12447H30.178C30.6267 7.10224 31.063 7.26019 31.3676 7.55513C31.6723 7.85007 31.8133 8.25112 31.7522 8.64861C31.8181 9.04774 31.679 9.45214 31.3737 9.7495C31.0683 10.0469 30.6291 10.2055 30.178 10.1815Z" fill="white"/>
<path fill-rule="evenodd" clip-rule="evenodd" d="M34.1435 7.73489C33.5923 8.04025 33.2827 8.59819 33.3445 9.1747C33.2815 9.75183 33.5909 10.3109 34.1425 10.6169C34.6941 10.9229 35.3925 10.9229 35.9441 10.6169C36.4958 10.3109 36.8051 9.75183 36.7421 9.1747C36.8039 8.59819 36.4943 8.04025 35.9432 7.73489C35.392 7.42952 34.6946 7.42952 34.1435 7.73489ZM35.0445 8.06979C35.6601 8.06979 36.0109 8.47751 36.0109 9.1747H36.0109C36.0109 9.87469 35.6601 10.2821 35.0445 10.2821C34.4265 10.2821 34.0789 9.87749 34.0789 9.17471C34.0789 8.47751 34.4265 8.06979 35.0445 8.06979Z" fill="white"/>
<path fill-rule="evenodd" clip-rule="evenodd" d="M41.2585 10.7842H40.521L39.7765 8.41539H39.7202L38.9788 10.7842H38.2483L37.2554 7.56787H37.9765L38.6218 10.0222H38.6749L39.4155 7.56787H40.0976L40.8382 10.0222H40.8944L41.5366 7.56787H42.2476L41.2585 10.7842Z" fill="white"/>
<path fill-rule="evenodd" clip-rule="evenodd" d="M43.0828 7.56796H43.7671V8.07891H43.8203C44.005 7.70271 44.4367 7.47259 44.8953 7.50587C45.2503 7.48204 45.5982 7.60365 45.8408 7.83637C46.0834 8.06909 46.1943 8.38767 46.1421 8.70216V10.7843H45.4312V8.86156C45.4312 8.34468 45.1796 8.08763 44.6539 8.08763C44.413 8.07761 44.1793 8.162 44.014 8.31867C43.8487 8.47533 43.7682 8.68866 43.7937 8.90271V10.7843H43.0828L43.0828 7.56796Z" fill="white"/>
<path fill-rule="evenodd" clip-rule="evenodd" d="M47.275 6.31226H47.9859V10.7842H47.275V6.31226Z" fill="white"/>
<path fill-rule="evenodd" clip-rule="evenodd" d="M49.7732 7.73489C49.222 8.04026 48.9124 8.59821 48.9741 9.17476C48.9112 9.75191 49.2206 10.3109 49.7723 10.6169C50.324 10.9229 51.0223 10.9229 51.574 10.6169C52.1256 10.3109 52.435 9.75191 52.3722 9.17476C52.4339 8.59821 52.1242 8.04026 51.573 7.73489C51.0218 7.42952 50.3244 7.42952 49.7732 7.73489ZM50.6741 8.06985C51.2897 8.06985 51.6405 8.47757 51.6405 9.17476H51.6405C51.6405 9.87475 51.2897 10.2821 50.6741 10.2821C50.0562 10.2821 49.7085 9.87755 49.7085 9.17477C49.7085 8.47757 50.0561 8.06985 50.6741 8.06985Z" fill="white"/>
<path fill-rule="evenodd" clip-rule="evenodd" d="M54.4604 8.91455C53.6034 8.96198 53.1206 9.29575 53.1206 9.87472C53.1218 10.1492 53.253 10.4105 53.4818 10.5939C53.7106 10.7773 54.0156 10.8657 54.3214 10.8373C54.7576 10.8553 55.171 10.6624 55.4034 10.3323H55.4597V10.7843H56.144V8.5867C56.144 7.90729 55.6347 7.50586 54.7315 7.50586C53.9144 7.50586 53.3323 7.86021 53.2597 8.41267H53.9479C54.0269 8.18527 54.3019 8.05517 54.6987 8.05517C55.1847 8.05517 55.4362 8.247 55.4362 8.5867V8.86432L54.4604 8.91455ZM55.4362 9.33098V9.59988C55.4207 9.80487 55.3126 9.99546 55.1368 10.128C54.9609 10.2605 54.7324 10.3237 54.5034 10.303C54.1167 10.303 53.8354 10.1345 53.8354 9.84507C53.8354 9.56152 54.0604 9.41085 54.5565 9.3812L55.4362 9.33098Z" fill="white"/>
<path fill-rule="evenodd" clip-rule="evenodd" d="M58.5737 7.51448C57.6635 7.51448 57.0784 8.15832 57.0784 9.17464C57.0784 10.1934 57.6573 10.8373 58.5737 10.8372C59.0383 10.8525 59.474 10.6364 59.7049 10.276H59.7612V10.7842H60.4424V6.31226H59.7315V8.07877H59.6784C59.4637 7.71545 59.0333 7.49558 58.5737 7.51448ZM58.7753 10.2673C58.1729 10.2673 57.8128 9.85684 57.8128 9.17464H57.8127C57.8127 8.49802 58.1768 8.08473 58.7753 8.08473C59.3706 8.08473 59.7448 8.50709 59.7448 9.17743C59.7448 9.85092 59.3745 10.2673 58.7753 10.2673Z" fill="white"/>
<path fill-rule="evenodd" clip-rule="evenodd" d="M64.1828 7.73489C63.6316 8.04025 63.322 8.59819 63.3838 9.1747C63.3208 9.75183 63.6302 10.3109 64.1818 10.6169C64.7334 10.9229 65.4318 10.9229 65.9834 10.6169C66.5351 10.3109 66.8444 9.75183 66.7815 9.1747C66.8432 8.59819 66.5336 8.04025 65.9825 7.73489C65.4313 7.42952 64.7339 7.42952 64.1828 7.73489ZM65.0838 8.06979C65.6994 8.06979 66.0502 8.47751 66.0502 9.1747C66.0502 9.87469 65.6994 10.2821 65.0838 10.2821C64.4659 10.2821 64.1182 9.87749 64.1182 9.17471C64.1182 8.47751 64.4658 8.06979 65.0838 8.06979Z" fill="white"/>
<path fill-rule="evenodd" clip-rule="evenodd" d="M67.7354 7.56796H68.4197V8.07891H68.4729C68.6576 7.70271 69.0893 7.47259 69.5479 7.50587C69.9029 7.48204 70.2508 7.60365 70.4934 7.83637C70.736 8.06909 70.8468 8.38767 70.7947 8.70216V10.7843H70.0838V8.86156C70.0838 8.34468 69.8322 8.08763 69.3064 8.08763C69.0656 8.07761 68.8319 8.162 68.6666 8.31867C68.5012 8.47533 68.4208 8.68866 68.4463 8.90271V10.7843H67.7354V7.56796Z" fill="white"/>
<path fill-rule="evenodd" clip-rule="evenodd" d="M74.8119 6.76709V7.58252H75.5924V8.11719H74.8119V9.77107C74.8119 10.108 74.9674 10.2555 75.3213 10.2555C75.4119 10.2553 75.5024 10.2504 75.5924 10.2409V10.7696C75.4647 10.79 75.3354 10.8008 75.2057 10.802C74.415 10.802 74.1002 10.5537 74.1002 9.93359V8.11716H73.5283V7.58249H74.1002V6.76709H74.8119Z" fill="white"/>
<path fill-rule="evenodd" clip-rule="evenodd" d="M76.5635 6.31226H77.2682V8.08472H77.3244C77.518 7.70523 77.9573 7.47482 78.4228 7.50855C78.7758 7.4914 79.1191 7.61569 79.359 7.84757C79.5989 8.07944 79.7105 8.39476 79.6634 8.70763V10.7842H78.9518V8.86422C78.9518 8.35048 78.6838 8.09029 78.1815 8.09029C77.9341 8.07218 77.6905 8.15246 77.5156 8.30968C77.3407 8.4669 77.2525 8.68501 77.2744 8.90572V10.7842H76.5635L76.5635 6.31226Z" fill="white"/>
<path fill-rule="evenodd" clip-rule="evenodd" d="M82.248 10.8462C82.9521 10.9144 83.6096 10.5224 83.809 9.91568L83.1246 9.91566C82.954 10.1888 82.6154 10.3429 82.2676 10.3056C81.9993 10.3083 81.7423 10.2098 81.5596 10.0343C81.377 9.85891 81.2857 9.62283 81.3082 9.38416V9.34859H83.8519V9.1271C83.8519 8.1171 83.2473 7.50567 82.2449 7.50567C81.7633 7.502 81.3037 7.68508 80.985 8.00748C80.6663 8.32988 80.52 8.75987 80.584 9.18605C80.5183 9.61106 80.6651 10.0404 80.9856 10.3601C81.3061 10.6798 81.7677 10.8575 82.248 10.8462ZM83.1277 8.87913H81.3082C81.305 8.65734 81.4022 8.44379 81.5778 8.28691C81.7534 8.13003 81.9926 8.04313 82.241 8.04592C82.4861 8.0409 82.7221 8.12853 82.891 8.2872C83.0599 8.44588 83.1458 8.66085 83.1277 8.87913Z" fill="white"/>
</svg>
