<svg width="66" height="65" viewBox="0 0 66 65" fill="none" xmlns="http://www.w3.org/2000/svg">
<path d="M13.1248 32.9708C13.0569 30.5495 13.4667 28.1386 14.3307 25.8758C15.1947 23.6129 16.496 21.5425 18.1603 19.7826C19.8246 18.0228 21.8193 16.6081 24.0305 15.6192C26.2416 14.6304 28.6259 14.0869 31.0472 14.0197L31.8453 13.9994C26.9512 14.0318 22.2705 16.0069 18.8328 19.4904C15.3951 22.9739 13.4819 27.6803 13.5143 32.5743C13.5466 37.4684 15.5218 42.1491 19.0053 45.5868C22.4887 49.0245 27.1952 50.9377 32.0892 50.9053C29.6659 50.975 27.2526 50.5661 24.9874 49.7022C22.7222 48.8382 20.6497 47.5361 18.8882 45.8704C17.1268 44.2046 15.7111 42.2078 14.7222 39.9944C13.7332 37.7809 13.1904 35.3942 13.1248 32.9708Z" fill="white"/>
<path d="M31.8387 14.0227C29.0794 13.9868 26.3472 14.5709 23.8436 15.7318C21.3401 16.8927 19.1292 18.6008 17.3739 20.7302C15.6186 22.8596 14.3637 25.3559 13.7018 28.0349C13.0399 30.7139 12.9879 33.5074 13.5496 36.2092C14.1114 38.911 15.2725 41.4522 16.9473 43.6455C18.6222 45.8387 20.768 47.6279 23.2266 48.8812C25.6852 50.1345 28.3937 50.8198 31.1525 50.8867C33.9113 50.9535 36.6499 50.4002 39.1663 49.2675C41.1142 48.3937 42.8923 47.1823 44.4184 45.6893C47.0391 43.1493 48.8468 39.8886 49.6127 36.3203C50.3786 32.752 50.0681 29.0367 48.7207 25.6449C47.3732 22.2532 45.0494 19.3378 42.0436 17.2679C39.0377 15.198 35.4852 14.0668 31.8359 14.0177L31.8387 14.0227Z" fill="white"/>
<path d="M32.3484 9.5355C27.3672 9.36709 22.4667 10.8259 18.3886 13.6912C14.3105 16.5565 11.2767 20.6723 9.74655 25.4157C8.21636 30.159 8.27299 35.2718 9.90789 39.9801C11.5428 44.6884 14.6669 48.736 18.8075 51.5102C22.9481 54.2845 27.8797 55.6344 32.856 55.3557C37.8323 55.077 42.5823 53.1848 46.3872 49.9655C50.1921 46.7463 52.8448 42.3751 53.9437 37.5137C55.0426 32.6523 54.5279 27.5652 52.4776 23.0224C50.7282 19.1104 47.9121 15.7704 44.3519 13.3851C40.7918 10.9998 36.6318 9.66562 32.3484 9.5355ZM48.4022 24.8812C49.9623 28.3382 50.4172 32.1925 49.7047 35.9177C48.9922 39.6428 47.1471 43.0572 44.4213 45.6945C42.8951 47.1873 41.117 48.3986 39.1692 49.2726C36.94 50.2839 34.5313 50.84 32.0844 50.9082C27.2356 50.9773 22.5546 49.1344 19.0544 45.7782C15.5542 42.422 13.5163 37.8225 13.3817 32.9751C13.2472 28.1277 15.0267 23.4222 18.3354 19.877C21.644 16.3318 26.2155 14.232 31.0607 14.032L31.8588 14.0117C35.3644 14.0629 38.7829 15.1126 41.713 17.0378C44.6432 18.963 46.9637 21.6838 48.4022 24.8812Z" fill="white" stroke="black" stroke-width="0.822143" stroke-miterlimit="10"/>
<path d="M50.9556 48.1447C48.7305 50.5012 46.03 52.3578 43.033 53.5916C40.0361 54.8254 36.8111 55.4082 33.5719 55.3014C36.1469 55.0816 38.6652 54.4228 41.018 53.3536C45.7341 51.2207 49.59 47.5552 51.9589 42.9531C54.3278 38.351 55.0702 33.0829 54.0656 28.0053C53.061 22.9278 50.3684 18.3393 46.4255 14.986C42.4826 11.6327 37.5214 9.71178 32.3484 9.53548C36.9743 9.15181 41.6079 10.1805 45.6369 12.4857C49.6659 14.7909 52.9008 18.2641 54.9143 22.4465C56.9278 26.6289 57.6251 31.3238 56.9141 35.9108C56.2032 40.4979 54.1174 44.7614 50.9323 48.1381L50.9556 48.1447Z" fill="#C1E3E9"/>
<path d="M32.3482 9.5355C35.4725 9.24976 38.6222 9.60788 41.6025 10.5877C44.5828 11.5676 47.3305 13.1484 49.6757 15.2323C52.0208 17.3162 53.9136 19.859 55.237 22.7035C56.5604 25.548 57.2863 28.6337 57.3698 31.7699C57.4533 34.9061 56.8926 38.0261 55.7225 40.9369C54.5523 43.8478 52.7975 46.4878 50.5665 48.6935C48.3356 50.8993 45.6759 52.624 42.7519 53.7611C39.8279 54.8981 36.7018 55.4233 33.5668 55.3042" stroke="black" stroke-width="0.822143" stroke-linejoin="round"/>
<path d="M33.5719 55.3014C27.8424 55.8031 22.1335 54.1349 17.5756 50.6272C13.0177 47.1195 9.94331 42.028 8.96121 36.3611C7.97911 30.6942 9.16094 24.8651 12.2727 20.0282C15.3844 15.1913 20.199 11.6993 25.7632 10.2438C31.3274 8.78831 37.2352 9.4754 42.3168 12.169C47.3984 14.8627 51.2832 19.3664 53.2018 24.7883C55.1204 30.2102 54.9329 36.155 52.6765 41.4452C50.4201 46.7355 46.2592 50.9855 41.018 53.3536C38.6652 54.4228 36.1469 55.0816 33.5719 55.3014V55.3014Z" stroke="black" stroke-width="0.822143" stroke-linejoin="round"/>
<path d="M31.8386 14.0227C35.4878 14.0718 39.0404 15.203 42.0462 17.2729C45.052 19.3428 47.3759 22.2582 48.7233 25.6499C50.0708 29.0417 50.3812 32.757 49.6154 36.3253C48.8495 39.8936 47.0417 43.1543 44.4211 45.6943C42.8948 47.1871 41.1168 48.3985 39.1689 49.2725C36.9397 50.2838 34.5311 50.8398 32.0842 50.9081" stroke="black" stroke-width="0.822143" stroke-linejoin="round"/>
<path d="M31.8377 13.9974L31.0397 14.0177C28.617 14.0856 26.2315 14.6301 24.0193 15.6199C21.8071 16.6098 19.8115 18.0257 18.1464 19.7868C14.7838 23.3436 12.9718 28.0904 13.109 32.9831C13.2462 37.8759 15.3215 42.5137 18.8782 45.8764C22.4349 49.239 27.1818 51.051 32.0745 50.9138" stroke="black" stroke-width="0.822143" stroke-linejoin="round"/>
<path d="M56.8182 36.6744L54.1865 36.391" stroke="black" stroke-width="0.822143" stroke-linecap="round" stroke-linejoin="round"/>
<path d="M57.1547 34.0916L54.5181 33.8109" stroke="black" stroke-width="0.822143" stroke-linecap="round" stroke-linejoin="round"/>
<path d="M56.2173 38.7716L53.8809 38.526" stroke="black" stroke-width="0.822143" stroke-linecap="round" stroke-linejoin="round"/>
<path d="M55.3832 40.9069L53.1648 40.674" stroke="black" stroke-width="0.822143" stroke-linecap="round" stroke-linejoin="round"/>
<path d="M54.467 43.1406L52.1123 42.8856" stroke="black" stroke-width="0.822143" stroke-linecap="round" stroke-linejoin="round"/>
<path d="M31.0641 38.7555L25.2434 42.8988C25.1054 42.9958 24.9409 43.0478 24.7722 43.0478C24.6036 43.0478 24.4391 42.9957 24.3011 42.8987C24.1632 42.8017 24.0585 42.6645 24.0015 42.5058C23.9444 42.3471 23.9377 42.1747 23.9823 42.012L25.9716 35.144C26.019 34.9834 26.0158 34.812 25.9622 34.6533C25.9087 34.4946 25.8075 34.3563 25.6725 34.2572L19.9309 30.0269C19.7947 29.9254 19.6934 29.7841 19.641 29.6225C19.5887 29.4609 19.5879 29.287 19.6388 29.1249C19.6896 28.9628 19.7896 28.8206 19.9248 28.7178C20.0601 28.6151 20.2239 28.5569 20.3937 28.5514L27.5647 28.3079C27.7316 28.3031 27.893 28.247 28.027 28.1473C28.1611 28.0476 28.2611 27.9091 28.3137 27.7506L30.5806 20.9654C30.6356 20.8048 30.7387 20.6651 30.8761 20.5654C31.0134 20.4656 31.1782 20.4107 31.3479 20.408C31.5176 20.4054 31.684 20.4553 31.8244 20.5507C31.9647 20.6462 32.0722 20.7827 32.1321 20.9415L34.5657 27.6719C34.6217 27.8301 34.7253 27.9671 34.8622 28.0641C34.9991 28.1612 35.1627 28.2135 35.3305 28.214L42.477 28.2764C42.6469 28.2795 42.8117 28.3351 42.9488 28.4354C43.0859 28.5358 43.1887 28.6761 43.2431 28.8371C43.2974 28.9981 43.3007 29.1719 43.2525 29.3349C43.2042 29.4978 43.1068 29.6419 42.9735 29.7473L37.3152 34.1168C37.1846 34.221 37.0885 34.3624 37.0396 34.5222C36.9906 34.682 36.9911 34.8529 37.0409 35.0124L39.1693 41.8398C39.2195 42.0017 39.2182 42.1753 39.1656 42.3365C39.113 42.4977 39.0117 42.6386 38.8756 42.7397C38.7396 42.8409 38.5755 42.8974 38.406 42.9013C38.2365 42.9053 38.0699 42.8565 37.9293 42.7618L32.007 38.7539C31.8692 38.6563 31.7043 38.604 31.5353 38.6043C31.3664 38.6045 31.2017 38.6574 31.0641 38.7555Z" fill="#96C5D3"/>
</svg>
