<svg width="66" height="65" viewBox="0 0 66 65" fill="none" xmlns="http://www.w3.org/2000/svg">
<path d="M13.1248 33.0603C13.0569 30.639 13.4667 28.2281 14.3307 25.9653C15.1947 23.7024 16.496 21.6319 18.1603 19.8721C19.8246 18.1123 21.8193 16.6975 24.0305 15.7087C26.2416 14.7199 28.6259 14.1764 31.0472 14.1092L31.8453 14.0889C26.9512 14.1213 22.2705 16.0964 18.8328 19.5799C15.3951 23.0634 13.4819 27.7698 13.5143 32.6638C13.5466 37.5578 15.5218 42.2386 19.0053 45.6763C22.4887 49.114 27.1952 51.0271 32.0892 50.9948C29.6659 51.0645 27.2526 50.6556 24.9874 49.7917C22.7222 48.9277 20.6497 47.6256 18.8882 45.9598C17.1268 44.2941 15.7111 42.2973 14.7222 40.0839C13.7332 37.8704 13.1904 35.4837 13.1248 33.0603Z" fill="white"/>
<path d="M31.8387 14.1122C29.0794 14.0763 26.3472 14.6604 23.8436 15.8213C21.3401 16.9822 19.1292 18.6903 17.3739 20.8197C15.6186 22.9491 14.3637 25.4453 13.7018 28.1244C13.0399 30.8034 12.9879 33.5969 13.5496 36.2987C14.1114 39.0005 15.2725 41.5417 16.9473 43.7349C18.6222 45.9282 20.768 47.7174 23.2266 48.9707C25.6852 50.224 28.3937 50.9093 31.1525 50.9762C33.9113 51.043 36.6499 50.4897 39.1663 49.357C41.1142 48.4831 42.8923 47.2718 44.4184 45.7788C47.0391 43.2388 48.8468 39.9781 49.6127 36.4098C50.3786 32.8415 50.0681 29.1261 48.7207 25.7344C47.3732 22.3427 45.0494 19.4272 42.0436 17.3574C39.0377 15.2875 35.4852 14.1563 31.8359 14.1072L31.8387 14.1122Z" fill="white"/>
<path d="M32.3484 9.62497C27.3672 9.45657 22.4667 10.9154 18.3886 13.7807C14.3105 16.646 11.2767 20.7618 9.74655 25.5052C8.21636 30.2485 8.27299 35.3613 9.90789 40.0696C11.5428 44.7779 14.6669 48.8254 18.8075 51.5997C22.9481 54.3739 27.8797 55.7239 32.856 55.4452C37.8323 55.1665 42.5823 53.2743 46.3872 50.055C50.1921 46.8357 52.8448 42.4646 53.9437 37.6032C55.0426 32.7418 54.5279 27.6547 52.4776 23.1119C50.7282 19.1999 47.9121 15.8599 44.3519 13.4746C40.7918 11.0893 36.6318 9.7551 32.3484 9.62497ZM48.4022 24.9707C49.9623 28.4276 50.4172 32.282 49.7047 36.0071C48.9922 39.7323 47.1471 43.1467 44.4213 45.784C42.8951 47.2767 41.117 48.4881 39.1692 49.3621C36.94 50.3734 34.5313 50.9295 32.0844 50.9977C27.2356 51.0668 22.5546 49.2238 19.0544 45.8677C15.5542 42.5115 13.5163 37.912 13.3817 33.0646C13.2472 28.2172 15.0267 23.5117 18.3354 19.9665C21.644 16.4213 26.2155 14.3215 31.0607 14.1215L31.8588 14.1012C35.3644 14.1523 38.7829 15.2021 41.713 17.1273C44.6432 19.0525 46.9637 21.7733 48.4022 24.9707Z" fill="white" stroke="black" stroke-width="0.822143" stroke-miterlimit="10"/>
<path d="M50.9556 48.2342C48.7305 50.5906 46.03 52.4473 43.033 53.6811C40.0361 54.9149 36.8111 55.4977 33.5719 55.3909C36.1469 55.171 38.6652 54.5123 41.018 53.4431C45.7341 51.3102 49.59 47.6447 51.9589 43.0426C54.3278 38.4405 55.0702 33.1724 54.0656 28.0948C53.061 23.0173 50.3684 18.4288 46.4255 15.0755C42.4826 11.7222 37.5214 9.80126 32.3484 9.62495C36.9743 9.24128 41.6079 10.27 45.6369 12.5752C49.6659 14.8804 52.9008 18.3536 54.9143 22.536C56.9278 26.7184 57.6251 31.4132 56.9141 36.0003C56.2032 40.5874 54.1174 44.8509 50.9323 48.2276L50.9556 48.2342Z" fill="#C1E3E9"/>
<path d="M32.3482 9.62498C35.4725 9.33924 38.6222 9.69736 41.6025 10.6772C44.5828 11.6571 47.3305 13.2378 49.6757 15.3218C52.0208 17.4057 53.9136 19.9485 55.237 22.793C56.5604 25.6375 57.2863 28.7232 57.3698 31.8594C57.4533 34.9956 56.8926 38.1155 55.7225 41.0264C54.5523 43.9373 52.7975 46.5772 50.5665 48.783C48.3356 50.9888 45.6759 52.7135 42.7519 53.8505C39.8279 54.9876 36.7018 55.5128 33.5668 55.3937" stroke="black" stroke-width="0.822143" stroke-linejoin="round"/>
<path d="M33.5719 55.3909C27.8424 55.8926 22.1335 54.2244 17.5756 50.7167C13.0177 47.209 9.94331 42.1175 8.96121 36.4506C7.97911 30.7837 9.16094 24.9546 12.2727 20.1177C15.3844 15.2808 20.199 11.7888 25.7632 10.3333C31.3274 8.87779 37.2352 9.56488 42.3168 12.2585C47.3984 14.9521 51.2832 19.4559 53.2018 24.8778C55.1204 30.2997 54.9329 36.2445 52.6765 41.5347C50.4201 46.825 46.2592 51.075 41.018 53.4431C38.6652 54.5123 36.1469 55.171 33.5719 55.3909V55.3909Z" stroke="black" stroke-width="0.822143" stroke-linejoin="round"/>
<path d="M31.8386 14.1122C35.4878 14.1613 39.0404 15.2925 42.0462 17.3624C45.052 19.4322 47.3759 22.3477 48.7233 25.7394C50.0708 29.1311 50.3812 32.8465 49.6154 36.4148C48.8495 39.9831 47.0417 43.2438 44.4211 45.7838C42.8948 47.2766 41.1168 48.4879 39.1689 49.362C36.9397 50.3733 34.5311 50.9293 32.0842 50.9976" stroke="black" stroke-width="0.822143" stroke-linejoin="round"/>
<path d="M31.8377 14.0869L31.0397 14.1071C28.617 14.1751 26.2315 14.7195 24.0193 15.7094C21.8071 16.6993 19.8115 18.1152 18.1464 19.8763C14.7838 23.433 12.9718 28.1799 13.109 33.0726C13.2462 37.9654 15.3215 42.6032 18.8782 45.9658C22.4349 49.3285 27.1818 51.1405 32.0745 51.0033" stroke="black" stroke-width="0.822143" stroke-linejoin="round"/>
<path d="M56.8182 36.7639L54.1865 36.4805" stroke="black" stroke-width="0.822143" stroke-linecap="round" stroke-linejoin="round"/>
<path d="M57.1547 34.1811L54.5181 33.9004" stroke="black" stroke-width="0.822143" stroke-linecap="round" stroke-linejoin="round"/>
<path d="M56.2173 38.861L53.8809 38.6155" stroke="black" stroke-width="0.822143" stroke-linecap="round" stroke-linejoin="round"/>
<path d="M55.3832 40.9964L53.1648 40.7634" stroke="black" stroke-width="0.822143" stroke-linecap="round" stroke-linejoin="round"/>
<path d="M54.467 43.23L52.1123 42.9751" stroke="black" stroke-width="0.822143" stroke-linecap="round" stroke-linejoin="round"/>
<path d="M31.0641 38.845L25.2434 42.9883C25.1054 43.0852 24.9409 43.1373 24.7722 43.1373C24.6036 43.1373 24.4391 43.0852 24.3011 42.9882C24.1632 42.8912 24.0585 42.754 24.0015 42.5953C23.9444 42.4366 23.9377 42.2642 23.9823 42.1015L25.9716 35.2335C26.019 35.0728 26.0158 34.9015 25.9622 34.7428C25.9087 34.5841 25.8075 34.4458 25.6725 34.3467L19.9309 30.1164C19.7947 30.0149 19.6934 29.8736 19.641 29.712C19.5887 29.5504 19.5879 29.3765 19.6388 29.2144C19.6896 29.0523 19.7896 28.9101 19.9248 28.8073C20.0601 28.7045 20.2239 28.6464 20.3937 28.6408L27.5647 28.3973C27.7316 28.3925 27.893 28.3365 28.027 28.2368C28.1611 28.1371 28.2611 27.9986 28.3137 27.8401L30.5806 21.0549C30.6356 20.8943 30.7387 20.7546 30.8761 20.6548C31.0134 20.5551 31.1782 20.5001 31.3479 20.4975C31.5176 20.4949 31.684 20.5447 31.8244 20.6402C31.9647 20.7357 32.0722 20.8721 32.1321 21.031L34.5657 27.7614C34.6217 27.9196 34.7253 28.0566 34.8622 28.1536C34.9991 28.2507 35.1627 28.303 35.3305 28.3035L42.477 28.3659C42.6469 28.369 42.8117 28.4246 42.9488 28.5249C43.0859 28.6253 43.1887 28.7655 43.2431 28.9266C43.2974 29.0876 43.3007 29.2614 43.2525 29.4244C43.2042 29.5873 43.1068 29.7314 42.9735 29.8368L37.3152 34.2062C37.1846 34.3105 37.0885 34.4518 37.0396 34.6117C36.9906 34.7715 36.9911 34.9423 37.0409 35.1019L39.1693 41.9293C39.2195 42.0912 39.2182 42.2648 39.1656 42.4259C39.113 42.5871 39.0117 42.728 38.8756 42.8292C38.7396 42.9304 38.5755 42.9868 38.406 42.9908C38.2365 42.9948 38.0699 42.946 37.9293 42.8513L32.007 38.8434C31.8692 38.7458 31.7043 38.6935 31.5353 38.6937C31.3664 38.694 31.2017 38.7469 31.0641 38.845Z" fill="#EC964E"/>
</svg>
