<svg width="107" height="32" viewBox="0 0 107 32" fill="none" xmlns="http://www.w3.org/2000/svg">
<rect width="107" height="32" rx="5" fill="#282828"/>
<path fill-rule="evenodd" clip-rule="evenodd" d="M3.96296 0H103.037C105.226 0 107 1.79086 107 4V28C107 30.2091 105.226 32 103.037 32H3.96296C1.77428 32 0 30.2091 0 28V4C0 1.79086 1.77428 0 3.96296 0ZM106.366 4C106.366 2.14432 104.876 0.64 103.037 0.64H3.96296C2.12447 0.64 0.634074 2.14432 0.634074 4V28C0.634074 29.8557 2.12447 31.36 3.96296 31.36H103.037C104.876 31.36 106.366 29.8557 106.366 28V4Z" fill="#A6A6A6"/>
<path fill-rule="evenodd" clip-rule="evenodd" d="M37.9978 7.69496C38.0251 8.28758 37.802 8.86532 37.3803 9.29437C36.9073 9.76876 36.2486 10.0247 35.5693 9.99811C34.8865 10.0129 34.2278 9.75234 33.7499 9.27838C33.2569 8.81358 32.9854 8.17027 33.0008 7.50303C32.9831 6.83303 33.2548 6.18639 33.7499 5.71969C34.4998 5.00788 35.6163 4.80295 36.5818 5.19988C36.8787 5.31842 37.1435 5.50175 37.3556 5.73568L36.9193 6.15953C36.5879 5.77163 36.0875 5.55825 35.5693 5.58374C35.0497 5.58126 34.5515 5.78453 34.1896 6.14668C33.8276 6.50883 33.6332 6.99859 33.6512 7.50303C33.6401 8.2653 34.1023 8.95917 34.8225 9.26179C35.5428 9.56441 36.3798 9.41636 36.944 8.88652C37.1979 8.61948 37.3466 8.27397 37.3639 7.91088H35.5693V7.33509H37.9648C37.9832 7.4543 37.9942 7.57447 37.9978 7.69496Z" fill="white" stroke="white" stroke-width="0.2"/>
<path fill-rule="evenodd" clip-rule="evenodd" d="M41 5.61667H39.4483V7.2H40.8621V7.8H39.4483V9.38333H41V10H39V5H41V5.61667Z" fill="white" stroke="white" stroke-width="0.2"/>
<path fill-rule="evenodd" clip-rule="evenodd" d="M44.3501 10H43.6115V5.61667H42V5H46V5.61667H44.3501V10Z" fill="white" stroke="white" stroke-width="0.2"/>
<path fill-rule="evenodd" clip-rule="evenodd" d="M47.115 10V5H47.885V10H47.115Z" fill="white" stroke="white" stroke-width="0.2"/>
<path fill-rule="evenodd" clip-rule="evenodd" d="M50.3786 10H49.6311V5.61667H48V5H52V5.61667H50.3786V10Z" fill="white" stroke="white" stroke-width="0.2"/>
<path fill-rule="evenodd" clip-rule="evenodd" d="M57.5 10C58.1695 10 58.8116 9.73813 59.2848 9.27205C59.7618 8.80395 60.0203 8.16224 59.9988 7.49968C60.0136 6.83829 59.7561 6.19908 59.2848 5.72731C58.8172 5.25325 58.1713 4.99035 57.5 5.0008C56.8274 4.98348 56.1788 5.24748 55.7152 5.72731C55.2382 6.19542 54.9797 6.83713 55.0012 7.49968C54.9797 8.16224 55.2382 8.80395 55.7152 9.27205C56.1884 9.73813 56.8305 10 57.5 10ZM57.5 9.41698C57.003 9.41698 56.5267 9.221 56.1776 8.87287C55.8145 8.50675 55.6183 8.01105 55.634 7.49968C55.6096 6.99291 55.7939 6.49784 56.1452 6.1265C56.4943 5.77836 56.9705 5.58239 57.4675 5.58239C57.9646 5.58239 58.4408 5.77836 58.7899 6.1265C59.165 6.48728 59.3732 6.98364 59.366 7.49968C59.3817 8.01105 59.1855 8.50675 58.8224 8.87287C58.4733 9.221 57.997 9.41698 57.5 9.41698Z" fill="white"/>
<path d="M59.2848 9.27205L59.2148 9.20068L59.2147 9.20081L59.2848 9.27205ZM59.9988 7.49968L59.8986 7.49744L59.8988 7.50293L59.9988 7.49968ZM59.2848 5.72731L59.2136 5.79754L59.2141 5.79799L59.2848 5.72731ZM57.5 5.0008L57.4974 5.10085L57.5016 5.10079L57.5 5.0008ZM55.7152 5.72731L55.7852 5.79871L55.7871 5.7968L55.7152 5.72731ZM55.0012 7.49968L55.1014 7.50294L55.1012 7.49644L55.0012 7.49968ZM55.7152 9.27205L55.7853 9.20081L55.7852 9.20068L55.7152 9.27205ZM56.1776 8.87287L56.1066 8.94329L56.107 8.94368L56.1776 8.87287ZM55.634 7.49968L55.7343 7.50278L55.7339 7.49486L55.634 7.49968ZM56.1452 6.1265L56.0745 6.05566L56.0725 6.05777L56.1452 6.1265ZM58.7899 6.1265L58.7193 6.19732L58.7206 6.19856L58.7899 6.1265ZM59.366 7.49968L59.2659 7.49829L59.266 7.50277L59.366 7.49968ZM58.8224 8.87287L58.893 8.94368L58.8934 8.94329L58.8224 8.87287ZM59.2147 9.20081C58.7603 9.64829 58.1435 9.9 57.5 9.9V10.1C58.1955 10.1 58.8629 9.82797 59.355 9.3433L59.2147 9.20081ZM59.8988 7.50293C59.9194 8.13727 59.672 8.75199 59.2148 9.20068L59.3549 9.34342C59.8516 8.8559 60.1211 8.18721 60.0987 7.49644L59.8988 7.50293ZM59.2141 5.79799C59.6663 6.25063 59.913 6.86357 59.8988 7.49744L60.0987 7.50193C60.1142 6.81301 59.846 6.14753 59.3556 5.65664L59.2141 5.79799ZM57.5016 5.10079C58.1458 5.09076 58.7653 5.3431 59.2136 5.79754L59.356 5.65709C58.869 5.16341 58.1968 4.88994 57.4984 4.90081L57.5016 5.10079ZM55.7871 5.7968C56.2311 5.3373 56.8525 5.08416 57.4974 5.10077L57.5026 4.90084C56.8022 4.8828 56.1266 5.15765 55.6433 5.65783L55.7871 5.7968ZM55.1012 7.49644C55.0806 6.8621 55.328 6.24738 55.7852 5.79868L55.6451 5.65594C55.1484 6.14347 54.8789 6.81215 54.9013 7.50293L55.1012 7.49644ZM55.7852 9.20068C55.328 8.75199 55.0806 8.13727 55.1012 7.50293L54.9013 7.49644C54.8789 8.18721 55.1484 8.8559 55.6451 9.34342L55.7852 9.20068ZM57.5 9.9C56.8565 9.9 56.2397 9.64829 55.7853 9.20081L55.645 9.3433C56.1371 9.82797 56.8045 10.1 57.5 10.1V9.9ZM56.107 8.94368C56.475 9.31068 56.9768 9.51697 57.5 9.51697V9.31698C57.0292 9.31698 56.5784 9.13133 56.2482 8.80206L56.107 8.94368ZM55.5341 7.4966C55.5175 8.03565 55.7243 8.55785 56.1066 8.94329L56.2486 8.80245C55.9046 8.45564 55.7191 7.98645 55.734 7.50277L55.5341 7.4966ZM56.0725 6.05777C55.7027 6.44873 55.5084 6.97029 55.5342 7.5045L55.7339 7.49486C55.7108 7.01552 55.8851 6.54695 56.2178 6.19522L56.0725 6.05777ZM57.4675 5.48239C56.9443 5.48239 56.4426 5.68869 56.0745 6.05569L56.2158 6.1973C56.5459 5.86804 56.9968 5.68239 57.4675 5.68239V5.48239ZM58.8606 6.05569C58.4925 5.68869 57.9908 5.48239 57.4675 5.48239V5.68239C57.9383 5.68239 58.3891 5.86804 58.7193 6.1973L58.8606 6.05569ZM59.4659 7.50108C59.4735 6.9571 59.254 6.43422 58.8593 6.05443L58.7206 6.19856C59.0759 6.54033 59.2728 7.01018 59.266 7.49829L59.4659 7.50108ZM58.8934 8.94329C59.2757 8.55785 59.4825 8.03565 59.4659 7.4966L59.266 7.50277C59.2809 7.98645 59.0954 8.45564 58.7514 8.80245L58.8934 8.94329ZM57.5 9.51697C58.0232 9.51697 58.525 9.31068 58.893 8.94368L58.7518 8.80206C58.4216 9.13133 57.9708 9.31698 57.5 9.31698V9.51697Z" fill="white"/>
<path fill-rule="evenodd" clip-rule="evenodd" d="M60 10V5H60.8052L63.3333 8.89167V7.925V5H64V10H63.3074L60.6667 5.925V6.88333V10H60Z" fill="white" stroke="white" stroke-width="0.2"/>
<path fill-rule="evenodd" clip-rule="evenodd" d="M37.4162 18.952V20.4339H40.8235C40.7701 21.1318 40.4921 21.7904 40.0348 22.3027C39.3436 23.0377 38.3863 23.4326 37.4005 23.3894C35.3096 23.3894 33.6146 21.6202 33.6146 19.4377C33.6146 17.2552 35.3096 15.486 37.4005 15.486C38.3631 15.4711 39.2925 15.8526 39.9875 16.548L40.9892 15.5025C40.0395 14.5221 38.7517 13.982 37.4162 14.0041C35.5067 13.9266 33.7095 14.9457 32.7327 16.66C31.7558 18.3744 31.7558 20.5092 32.7327 22.2236C33.7095 23.938 35.5067 24.9571 37.4162 24.8795C38.7809 24.9364 40.1038 24.3822 41.0523 23.3565C41.8805 22.4068 42.3218 21.1577 42.2827 19.874C42.2855 19.5651 42.2617 19.2565 42.2117 18.952H37.4162ZM46.1553 17.8735C44.2997 17.878 42.7989 19.4519 42.8032 21.3888C42.8076 23.3258 44.3154 24.8923 46.1711 24.8877C48.0268 24.8832 49.5275 23.3093 49.5232 21.3724C49.5362 20.4375 49.185 19.5371 48.5501 18.8775C47.9152 18.2179 47.0509 17.8555 46.1553 17.8735ZM50.1542 21.3888C50.1498 19.4519 51.6506 17.878 53.5062 17.8735C54.4019 17.8555 55.2661 18.2179 55.901 18.8775C56.5359 19.5371 56.8871 20.4375 56.8741 21.3724C56.8785 23.3093 55.3777 24.8832 53.522 24.8877C51.6664 24.8923 50.1585 23.3258 50.1542 21.3888ZM51.5281 22.2932C51.8883 23.0801 52.6727 23.5573 53.5062 23.4964C54.0294 23.4838 54.5255 23.2511 54.8819 22.8511C55.2383 22.4512 55.4249 21.9179 55.3992 21.3724C55.3972 20.5003 54.8846 19.7181 54.1066 19.3999C53.3287 19.0818 52.4434 19.2923 51.8743 19.9309C51.3053 20.5694 51.168 21.5062 51.5281 22.2932ZM44.1772 22.2932C44.5374 23.0801 45.3218 23.5573 46.1553 23.4964C46.6785 23.4838 47.1745 23.2511 47.531 22.8511C47.8874 22.4512 48.0739 21.9179 48.0483 21.3724C48.0462 20.5003 47.5336 19.7181 46.7557 19.3999C45.9777 19.0818 45.0925 19.2923 44.5234 19.9309C43.9543 20.5694 43.817 21.5062 44.1772 22.2932ZM70.2825 17.8735C71.5901 17.9238 72.7323 18.8114 73.1534 20.1046L73.3191 20.4668L68.8312 22.4015C69.1107 23.0717 69.7563 23.4936 70.456 23.4635C71.1302 23.4703 71.7575 23.1038 72.1044 22.5003L73.2481 23.3235C72.4334 24.6117 70.9035 25.1864 69.4892 24.7356C68.0749 24.2847 67.1137 22.9159 67.1276 21.3724C67.0731 20.4639 67.3812 19.5724 67.9789 18.9096C68.5766 18.2468 69.4104 17.8717 70.2825 17.8735ZM68.5788 21.2736C68.5465 20.757 68.7148 20.2486 69.0456 19.8629C69.3765 19.4773 69.8422 19.2469 70.3376 19.2237C70.8572 19.1906 71.3451 19.4858 71.5759 19.9728L68.5788 21.2736ZM66.4098 24.6655H64.9349V14.3746H66.4098V24.6655ZM62.5214 18.6556H62.4662C62.0131 18.1408 61.3689 17.8557 60.6994 17.8735C58.9091 17.9641 57.5022 19.5056 57.5022 21.3765C57.5022 23.2474 58.9091 24.7889 60.6994 24.8795C61.3765 24.8937 62.0243 24.5918 62.4662 24.0562H62.5214V24.5584C62.5214 25.9004 61.8352 26.6166 60.731 26.6166C59.9766 26.5993 59.3068 26.1083 59.0352 25.3735L57.7575 25.9251C58.2411 27.1929 59.4237 28.018 60.731 27.9997C62.4583 27.9997 63.8859 26.9377 63.8859 24.3526V18.0793H62.5214V18.6556ZM58.9173 21.3765C58.9173 22.4983 59.753 23.4266 60.8256 23.4964C61.3382 23.4759 61.8204 23.2372 62.1601 22.836C62.4998 22.4348 62.6674 21.9059 62.6239 21.3724C62.6629 20.8408 62.4935 20.3154 62.1545 19.9166C61.8155 19.5177 61.336 19.2796 60.8256 19.2566C59.753 19.3264 58.9173 20.2548 58.9173 21.3765ZM80.0627 14.3746H76.5292V24.6655H78.0041V20.7632H80.0627C81.2084 20.8491 82.3042 20.2597 82.9022 19.236C83.5002 18.2122 83.5002 16.9256 82.9022 15.9018C82.3042 14.878 81.2084 14.2887 80.0627 14.3746ZM78.0041 19.3142H80.0627L80.0942 19.3307C81.0264 19.3307 81.7821 18.5419 81.7821 17.5689C81.7821 16.5959 81.0264 15.8071 80.0942 15.8071H78.0041V19.3142ZM89.1646 17.8406C88.0667 17.7699 87.034 18.3882 86.5381 19.413L87.8395 19.9811C88.1082 19.4755 88.6364 19.1821 89.1882 19.2319C89.5665 19.1858 89.9466 19.3002 90.2432 19.5494C90.5398 19.7987 90.7281 20.1618 90.7657 20.5574V20.6561C90.2914 20.3959 89.7635 20.2603 89.2277 20.261C87.8237 20.261 86.3883 21.0842 86.3883 22.5826C86.4163 23.226 86.6931 23.8301 87.1554 24.2568C87.6177 24.6835 88.2259 24.8963 88.8412 24.8466C89.5948 24.8901 90.3123 24.5062 90.7184 23.8422H90.7657V24.6655H92.1854V20.7055C92.1854 18.9026 90.8761 17.857 89.1961 17.857L89.1646 17.8406ZM87.8316 22.6073C87.8316 23.2247 88.502 23.48 88.9832 23.48L89.0147 23.4964C89.9063 23.4779 90.6475 22.7745 90.7499 21.8499C90.3407 21.6115 89.8776 21.492 89.4091 21.5041C88.6677 21.5041 87.8316 21.784 87.8316 22.6073ZM97.3594 18.0793L95.6716 22.5414H95.6242L93.8733 18.0793H92.2958L94.9223 24.3197L93.4237 27.7857H95.0012L99 18.0793H97.3594ZM85.5759 24.6655H84.1088V14.3746H85.5759V24.6655Z" fill="white"/>
<path fill-rule="evenodd" clip-rule="evenodd" d="M8.34487 6.05864C8.09787 6.38872 7.97601 6.80787 8.00392 7.23135V25.7603C7.97756 26.1878 8.10845 26.6093 8.36812 26.933L8.42236 27L18 16.6215V16.3702L8.39912 6L8.34487 6.05864Z" fill="url(#paint0_linear_6462_9057)"/>
<path fill-rule="evenodd" clip-rule="evenodd" d="M21.2315 20L18 16.6227V16.3773L21.2315 13L21.3025 13.0491L25.1724 15.3224C26.2759 15.9685 26.2759 17.0315 25.1724 17.6857L21.3182 19.9591L21.2315 20Z" fill="url(#paint1_linear_6462_9057)"/>
<path fill-rule="evenodd" clip-rule="evenodd" d="M22 19.279L18.458 16L8 25.6815C8.48936 26.0847 9.21975 26.1076 9.73741 25.7359L22 19.279Z" fill="url(#paint2_linear_6462_9057)"/>
<path fill-rule="evenodd" clip-rule="evenodd" d="M22 12.7205L9.73741 6.27017C9.22287 5.89304 8.49008 5.91271 8 6.3168L18.458 16L22 12.7205Z" fill="url(#paint3_linear_6462_9057)"/>
<path opacity="0.2" fill-rule="evenodd" clip-rule="evenodd" d="M21.8993 19L9.73741 25.6113C9.24066 25.9693 8.55551 25.9693 8.05875 25.6113L8 25.6674L8.05875 25.7315C8.55551 26.0895 9.24066 26.0895 9.73741 25.7315L22 19.0721L21.8993 19Z" fill="#282828"/>
<path opacity="0.12" fill-rule="evenodd" clip-rule="evenodd" d="M8.67287 26.9097C8.35166 26.6538 8.19425 26.3283 8.23287 26V26.0968C8.19884 26.4261 8.36776 26.7507 8.70287 27L8.77287 26.9548L8.67287 26.9097Z" fill="#282828"/>
<path opacity="0.12" fill-rule="evenodd" clip-rule="evenodd" d="M26.1254 16.2322L22 18.9147L22.0743 19L26.1254 16.3649C26.6125 16.1283 26.9481 15.6047 27 15C26.8954 15.547 26.5708 16.0044 26.1254 16.2322Z" fill="#282828"/>
<path opacity="0.25" fill-rule="evenodd" clip-rule="evenodd" d="M9.95924 6.3735L25.1726 14.9891C25.5939 15.176 25.901 15.5513 26 16C25.9509 15.504 25.6334 15.0744 25.1726 14.8803L9.95924 6.26464C8.87424 5.64257 8 6.15577 8 7.39991V7.51655C8 6.27241 8.87424 5.7592 9.95924 6.3735Z" fill="white"/>
<defs>
<linearGradient id="paint0_linear_6462_9057" x1="13.801" y1="-6.61409" x2="-1.7148" y2="-2.81079" gradientUnits="userSpaceOnUse">
<stop stop-color="#00A0FF"/>
<stop offset="0.01" stop-color="#00A1FF"/>
<stop offset="0.26" stop-color="#00BEFF"/>
<stop offset="0.51" stop-color="#00D2FF"/>
<stop offset="0.76" stop-color="#00DFFF"/>
<stop offset="1" stop-color="#00E3FF"/>
</linearGradient>
<linearGradient id="paint1_linear_6462_9057" x1="26.6148" y1="8.15862" x2="7.54877" y2="8.15862" gradientUnits="userSpaceOnUse">
<stop stop-color="#FFE000"/>
<stop offset="0.41" stop-color="#FFBD00"/>
<stop offset="0.78" stop-color="#FFA500"/>
<stop offset="1" stop-color="#FF9C00"/>
</linearGradient>
<linearGradient id="paint2_linear_6462_9057" x1="7.70414" y1="10.9646" x2="-4.22369" y2="32.5977" gradientUnits="userSpaceOnUse">
<stop stop-color="#FF3A44"/>
<stop offset="1" stop-color="#C31162"/>
</linearGradient>
<linearGradient id="paint3_linear_6462_9057" x1="-0.162532" y1="3.64259" x2="5.1611" y2="13.3038" gradientUnits="userSpaceOnUse">
<stop stop-color="#32A071"/>
<stop offset="0.07" stop-color="#2DA771"/>
<stop offset="0.48" stop-color="#15CF74"/>
<stop offset="0.8" stop-color="#06E775"/>
<stop offset="1" stop-color="#00F076"/>
</linearGradient>
</defs>
</svg>
