<svg width="32" height="33" viewBox="0 0 32 33" fill="none" xmlns="http://www.w3.org/2000/svg">
<path fill-rule="evenodd" clip-rule="evenodd" d="M32 16.6601C32 7.73522 24.8367 0.5 16 0.5C7.16335 0.499665 0.000332005 7.73455 0 16.6594C0 25.5843 7.20285 32.4997 16.0398 32.5C24.8762 32.5 31.9997 25.5847 32 16.6601ZM24.5584 23.6931C22.5678 25.9093 20.3559 27.2907 16.6233 27.2907C10.9279 27.2907 6.69792 22.7147 6.69792 16.9299V16.8723C6.69792 11.1448 10.845 6.4535 16.7895 6.4535C20.4389 6.4535 22.6229 7.71993 24.4204 9.56172L21.7105 12.8143C20.2176 11.4039 18.6975 10.5405 16.7619 10.5405C13.4994 10.5405 11.1492 13.361 11.1492 16.8146V16.8723C11.1492 20.3259 13.444 23.2041 16.7619 23.2041C18.9735 23.2041 20.3284 22.283 21.8489 20.8439L24.5584 23.6931Z" fill="#8700D7"/>
</svg>
